<svg aria-hidden="true" style="position:absolute;width:0;height:0;overflow:hidden" xmlns="http://www.w3.org/2000/svg">
    <defs>
        <symbol id="icon-Vector" viewBox="0 0 32 32">
            <path
                d="m31.558 29.221-5.922-5.916c4.531-5.638 4.094-13.975-1.073-19.097C21.86 1.508 18.243 0 14.388 0S6.956 1.509 4.213 4.208C1.51 6.908 0 10.521 0 14.372s1.51 7.424 4.213 10.164a14.316 14.316 0 0 0 10.175 4.208c3.259 0 6.439-1.112 8.982-3.136l5.922 5.916a1.57 1.57 0 0 0 1.113.476c.437 0 .835-.159 1.113-.476.636-.675.636-1.668.04-2.303zm-5.962-14.889c0 2.978-1.153 5.796-3.259 7.901s-4.928 3.256-7.909 3.256-5.803-1.151-7.909-3.256S3.26 17.31 3.26 14.332c0-2.978 1.153-5.797 3.259-7.901s4.928-3.256 7.909-3.256 5.803 1.151 7.909 3.256 3.259 4.923 3.259 7.901z" />
        </symbol>
        <symbol id="icon-nav" viewBox="0 0 17 32">
            <path stroke-width="1.306"
                d="M1.313.653c.173 0 .34.07.462.195l14.36 14.676a.677.677 0 0 1 0 .943L1.775 31.143c-.25.265-.664.272-.923.016s-.266-.678-.016-.943l.016-.016L14.75 15.996.851 1.792A.677.677 0 0 1 .85.849a.647.647 0 0 1 .463-.196z" />
        </symbol>
        <symbol id="icon-bottum" viewBox="0 0 53 32">
            <path d="M26.667 30.4 0 3.733 3.733 0l22.933 22.933L49.599 0l3.733 3.733L26.665 30.4z"/>
        </symbol>
    </defs>
</svg>